<?xml version="1.0" encoding="UTF-8" standalone="no"?>
<!DOCTYPE svg PUBLIC "-//W3C//DTD SVG 1.1//EN" "http://www.w3.org/Graphics/SVG/1.1/DTD/svg11.dtd">
<svg width="100%" height="100%" viewBox="0 0 1475 1510" version="1.1" xmlns="http://www.w3.org/2000/svg" xmlns:xlink="http://www.w3.org/1999/xlink" xml:space="preserve" xmlns:serif="http://www.serif.com/" style="fill-rule:evenodd;clip-rule:evenodd;stroke-linecap:square;stroke-miterlimit:2;">
    <g transform="matrix(1,0,0,1,-912.769,-620.807)">
        <g transform="matrix(1.40544,0,0,1.40654,-185.931,-476.793)">
            <g>
                <g transform="matrix(5.75157,0,0,5.74211,-11688.8,-6383.7)">
                    <path d="M2274.74,1310.67C2301.52,1317.92 2321.25,1342.42 2321.25,1371.48C2321.25,1406.25 2293.02,1434.48 2258.25,1434.48C2229.32,1434.48 2204.93,1414.95 2197.54,1388.36C2207.64,1401.7 2223.65,1410.32 2241.66,1410.32C2272.19,1410.32 2296.98,1385.54 2296.98,1355C2296.98,1336.87 2288.24,1320.76 2274.74,1310.67Z"/>
                </g>
                <g transform="matrix(4.26253,0,0,4.25551,-7678.67,-4226.65)">
                    <path d="M2086.62,1271.83L2097.72,1313.03L2138.91,1324.12L2097.72,1335.21L2086.62,1376.41L2075.53,1335.21L2034.34,1324.12L2075.53,1313.03L2086.62,1271.83Z"/>
                </g>
                <g transform="matrix(0.399662,0,0,0.382575,983.866,1238.25)">
                    <path d="M541.86,584.653L541.86,600.542L471.196,600.542C471.196,600.542 471.196,302.578 471.196,302.579C418.136,333.368 335.594,377.076 267.728,394.474L250.861,322.905C351.799,297.029 487.687,207.208 487.687,207.208L541.86,238.381L541.86,328.958C601.975,250.441 694.395,201.199 796.307,201.199L796.307,291.155C724.601,291.155 659.288,324.323 615.08,377.784C655.762,361.8 701.453,358.467 746.648,371.097C841.715,397.664 898.131,499.577 872.658,598.726C854.393,669.82 784.327,712.01 716.161,692.961C682.343,683.51 658.827,651.548 658.827,615.034L658.827,578.184L729.492,578.184L729.492,615.034C729.492,618.191 731.525,620.955 734.45,621.773C764.919,630.288 796.237,611.429 804.402,579.652C819.774,519.818 785.728,458.317 728.358,442.285C651.106,420.696 571.699,468.51 551,549.08L541.86,584.653Z" style="fill:none;stroke:black;stroke-width:149.32px;"/>
                    <path d="M541.86,584.653L541.86,600.542L471.196,600.542C471.196,600.542 471.196,302.578 471.196,302.579C418.136,333.368 335.594,377.076 267.728,394.474L250.861,322.905C351.799,297.029 487.687,207.208 487.687,207.208L541.86,238.381L541.86,328.958C601.975,250.441 694.395,201.199 796.307,201.199L796.307,291.155C724.601,291.155 659.288,324.323 615.08,377.784C655.762,361.8 701.453,358.467 746.648,371.097C841.715,397.664 898.131,499.577 872.658,598.726C854.393,669.82 784.327,712.01 716.161,692.961C682.343,683.51 658.827,651.548 658.827,615.034L658.827,578.184L729.492,578.184L729.492,615.034C729.492,618.191 731.525,620.955 734.45,621.773C764.919,630.288 796.237,611.429 804.402,579.652C819.774,519.818 785.728,458.317 728.358,442.285C651.106,420.696 571.699,468.51 551,549.08L541.86,584.653Z" style="fill:white;"/>
                </g>
            </g>
        </g>
        <g transform="matrix(1,0,0,1,-251.196,152.446)">
            <text x="1157.81px" y="671.535px" style="font-family:'TimesNewRomanPSMT', 'Times New Roman';font-size:300px;">E</text>
            <text x="1341.06px" y="671.535px" style="font-family:'TimesNewRomanPSMT', 'Times New Roman';font-size:200px;">ST<tspan x="1558.45px 1702.88px " y="671.535px 671.535px ">AR</tspan>APEDI</text>
            <g transform="matrix(300,0,0,300,2641.8,671.535)">
            </g>
            <text x="2425.15px" y="671.535px" style="font-family:'TimesNewRomanPSMT', 'Times New Roman';font-size:300px;">A</text>
        </g>
        <g transform="matrix(1,0,0,1,-273.462,116.793)">
            <g transform="matrix(100,0,0,100,2538.18,854.144)">
            </g>
            <text x="1307.81px" y="854.144px" style="font-family:'TimesNewRomanPSMT', 'Times New Roman';font-size:100px;">An Ephelion Company Project</text>
        </g>
    </g>
</svg>
